<?xml version="1.0" encoding="utf-8"?>
<!-- Generator: Adobe Illustrator 26.0.1, SVG Export Plug-In . SVG Version: 6.00 Build 0)  -->
<svg version="1.1" id="Layer_1" xmlns="http://www.w3.org/2000/svg" xmlns:xlink="http://www.w3.org/1999/xlink" x="0px" y="0px"
	 viewBox="0 0 70 77.9" style="enable-background:new 0 0 70 77.9;" xml:space="preserve">
<style type="text/css">
	.st0{fill:#28C870;}
</style>
<g>
	<path class="st0" d="M61.5,30.5c0.7-6.7-4.3-11.6-9.6-13s-11.4,2.9-13.1,4.2c-0.2,0.1-0.3,0.2-0.5,0.4c-1.3-0.8-11.9-6.8-21.5-4.8
		c-3.4,0.7-8.4,3.1-9.1,11.1c-2.4-0.3-4.2-2.2-4.2-2.2s-0.1,0-0.1-0.1c0,0,0,0-0.1-0.1H3.2c-0.1-0.1-0.3-0.2-0.4-0.2H2.7
		c-0.1,0-0.3,0-0.4,0c-0.1,0-0.1,0-0.2,0c-0.1,0-0.3,0.1-0.4,0.1S1.6,26,1.5,26s-0.1,0.1-0.2,0.1c0,0,0,0.1-0.1,0.1
		c0,0-0.1,0-0.1,0.1c0,0,0,0.1-0.1,0.1c-0.1,0.1-0.1,0.2-0.1,0.3c0,0.1,0,0.2-0.1,0.3c0,0.1,0,0.2,0,0.3c0,0.1,0,0.2,0.1,0.3
		c0,0.1,0,0.1,0.1,0.2s0.1,0.2,0.2,0.3c0,0,0,0.1,0.1,0.1l0.1,0.1l0,0c1.8,1.3,2.9,3.2,3,4.8C4.8,35.8,2,37.8,2,37.8
		c-0.4,0.4-0.6,0.9-0.4,1.4s0.6,0.9,1.1,1c0.6,0.1,1.2-0.1,1.6-0.5c1.2-1.5,2.8-2.5,4.3-2.8c0.8,2.3,2.2,4.5,3.4,6.5
		c1.6,2.5,3,4.9,3,6.7c0,0.6,0,1.2,0,2c-0.1,5.6-0.3,15.1,2.2,19.1s6.5,5.2,8.1,4.9c0.6-0.1,1-0.5,1.1-0.9c0.2-0.7,0.3-2.7,0.2-10.6
		c0-0.9,0-1.6,0-2.1c0-2.2,1.7-6.6,5.5-7.3c3.8-0.6,6.3,0.2,7.8,2.6c1.1,1.8,0.9,7.1,0.7,9.6c0,0.6-0.1,1.2-0.1,1.5
		c0,3.2,0.3,7,2.7,7.4c0.2,0,0.4,0.1,0.6,0.1c2.6,0,6.1-2.9,7.4-6.5c0.8-2.3,1-7.1,1.1-11.9c0.1-3.2,0.2-6.3,0.5-7.7
		c0.4-1.8,1.9-4.5,3.4-7.3C58.6,39,61.1,34.5,61.5,30.5L61.5,30.5z M60,30.4c-0.4,3.6-2.8,8.1-5,12c-1.6,2.9-3.1,5.6-3.6,7.7
		c-0.3,1.6-0.4,4.5-0.5,8c-0.1,4.4-0.3,9.4-1,11.4c-1.3,3.5-4.6,5.7-6.2,5.4c-0.4-0.1-1.4-0.8-1.4-5.9c0-0.3,0-0.8,0.1-1.4
		c0.2-4,0.3-8.5-0.9-10.5c-1.8-2.9-5-4-9.4-3.3c-4.8,0.8-6.8,6.1-6.8,8.7c0,0.4,0,1.2,0,2.1c0,2.7,0.1,9.1-0.1,10.1
		c-0.8,0.2-4.2-0.6-6.4-4.2c-2.3-3.7-2.1-13.2-2-18.4c0-0.8,0-1.4,0-2c0-2.2-1.6-4.8-3.2-7.5c-1.2-1.9-2.3-3.8-3.1-5.7
		c2.4,0.4,4.1,2.4,4.1,2.4s0.1,0,0.1,0.1c0,0,0,0,0.1,0.1h0.1c0.1,0.1,0.3,0.1,0.4,0.2c0.1,0,0.1,0,0.1,0c0.1,0,0.3,0,0.4,0
		c0.1,0,0.1,0,0.2,0s0.3-0.1,0.4-0.1s0.1-0.1,0.2-0.1s0.1-0.1,0.2-0.1l0.1-0.1l0,0l0,0c0.1-0.2,0.2-0.3,0.3-0.5l0,0v-0.1
		c0-0.2,0-0.4,0-0.6c0-0.1-0.1-0.2-0.2-0.3s-0.1-0.2-0.2-0.3l-0.1-0.1l0,0c-1.8-1.3-2.8-3-2.9-4.6c-0.2-2.8,2.4-4.9,2.5-5
		c0.6-0.6,0.6-1.5,0-2c-0.2-0.2-0.4-0.3-0.7-0.4c-0.1,0-0.2,0-0.3-0.1h-0.1c-0.5,0-0.9,0.2-1.3,0.5c-1.2,1.5-2.8,2.4-4.3,2.6
		c0.4-4.2,2.3-8.5,7.8-9.6c7.8-1.6,16.7,2.7,19.5,4.2c-2.5,1.1-5.6,2-5.7,2c-0.4,0.1-0.7,0.5-0.5,0.9c0.1,0.4,0.6,0.6,1,0.5
		c0.2,0,3.9-1.1,6.6-2.4c0.7-0.4,1.3-0.7,1.8-1.1c1.4-1.1,5.7-4.2,9.8-4.2c0.6,0,1.2,0.1,1.9,0.2C56.2,20.2,60.6,24.5,60,30.4
		L60,30.4z"/>
	<path class="st0" d="M49.6,14.4c0-0.1,0-0.2,0-0.3V14c0-0.4-0.3-0.9-0.7-1.1c-1.8-1.1-3-2.8-3.2-4.3c-0.5-2.8,1.7-5.2,1.7-5.2
		s0-0.1,0.1-0.1c0,0,0,0,0-0.1V3.1c0.1-0.1,0.1-0.3,0.1-0.4V2.6c0-0.1,0-0.3,0-0.4c0-0.1,0-0.1,0-0.1c0-0.1-0.1-0.2-0.2-0.3
		c0-0.1-0.1-0.1-0.1-0.2c-0.1-0.1-0.1-0.1-0.2-0.2c0,0-0.1,0-0.1-0.1c0,0,0,0-0.1-0.1c0,0-0.1,0-0.2-0.1c-0.1,0-0.2-0.1-0.3-0.1
		s-0.2,0-0.3,0s-0.2,0-0.3,0s-0.2,0.1-0.3,0.1s-0.1,0.1-0.2,0.1c-0.1,0.1-0.2,0.2-0.3,0.2c0,0-0.1,0-0.1,0.1l-0.1,0.1l0,0
		c-1.1,1.8-2.9,3.1-4.5,3.4c-2.8,0.5-5.1-1.9-5.1-1.9c-0.4-0.3-1-0.4-1.5-0.2C33.4,3.2,33,3.7,33,4.2c-0.1,0.6,0.2,1.2,0.7,1.5
		c1.8,1.1,3.1,2.7,3.4,4.2c0.5,2.8-1.9,5.3-1.9,5.3v0.1c0,0,0,0-0.1,0.1v0.1C35,15.6,35,15.8,35,15.9V16c0,0.1,0,0.3,0,0.4
		s0,0.1,0,0.2s0.1,0.2,0.2,0.3c0,0.1,0.1,0.1,0.1,0.2c0.1,0.1,0.1,0.1,0.2,0.2l0.1,0.1l0,0c0,0,0,0,0.1,0c0.2,0.1,0.4,0.2,0.5,0.2
		l0,0h0.1c0.2,0,0.4,0,0.6-0.1c0.1,0,0.2-0.1,0.3-0.2s0.2-0.1,0.3-0.2c0,0,0.1-0.1,0.1-0.2l0,0c1.1-1.8,2.8-3,4.3-3.2
		c2.8-0.5,5.3,1.7,5.3,1.8c0.6,0.5,1.6,0.4,2.1-0.2C49.4,14.9,49.5,14.7,49.6,14.4L49.6,14.4z"/>
	<path class="st0" d="M68.7,49.2c0-0.1-0.1-0.1-0.1-0.2c0,0,0,0-0.1-0.1c-0.2-0.2-0.5-0.4-0.9-0.3c-1.6,0.2-2.9-0.3-3.7-1
		c-1.5-1.4-1.2-3.7-1.2-3.7v-0.1c0,0,0,0,0-0.1c0,0,0,0,0-0.1s0-0.2-0.1-0.3v-0.1c-0.1-0.1-0.1-0.2-0.2-0.2c0,0-0.1,0-0.1-0.1
		c0,0.1-0.1,0.1-0.2,0.1H62c-0.1,0-0.1,0-0.2,0h-0.1c0,0,0,0-0.1,0h-0.1c-0.1,0-0.2,0-0.2,0.1c-0.1,0-0.1,0.1-0.2,0.1
		s-0.1,0.1-0.2,0.1c-0.1,0.1-0.1,0.1-0.1,0.2l-0.1,0.1c0,0.1-0.1,0.2-0.1,0.3V44v0.1l0,0c0.1,1.5-0.4,3.1-1.2,3.9
		c-1.5,1.5-3.8,1.2-3.9,1.2c-0.4,0-0.8,0.2-1,0.5s-0.2,0.7,0,1.1c0.2,0.3,0.6,0.6,1,0.5c1.6-0.2,3,0.1,3.8,0.9
		c1.5,1.3,1.1,3.8,1.1,3.8s0,0,0,0.1c0,0,0,0,0,0.1c0,0,0,0,0,0.1s0,0.2,0.1,0.3c0,0,0,0.1,0.1,0.1c0.1,0.1,0.1,0.2,0.2,0.2
		c0,0,0.1,0,0.1,0.1c0.1,0.1,0.1,0.1,0.2,0.1h0.1c0.1,0,0.1,0,0.2,0h0.1l0,0l0,0c0.1,0,0.3-0.1,0.4-0.1l0,0c0,0,0-0.1,0.1-0.1
		c0.1-0.1,0.2-0.2,0.3-0.3c0-0.1,0.1-0.2,0.1-0.2c0-0.1,0.1-0.1,0.1-0.2v-0.1l0,0c-0.1-1.5,0.4-2.9,1.2-3.7c1.4-1.5,3.8-1.3,3.9-1.3
		c0.6,0,1.1-0.5,1.1-1C68.9,49.6,68.8,49.4,68.7,49.2L68.7,49.2z"/>
</g>
</svg>
