<?xml version="1.0" encoding="utf-8"?>
<!-- Generator: Adobe Illustrator 26.0.1, SVG Export Plug-In . SVG Version: 6.00 Build 0)  -->
<svg version="1.1" id="Layer_1" xmlns="http://www.w3.org/2000/svg" xmlns:xlink="http://www.w3.org/1999/xlink" x="0px" y="0px"
	 viewBox="0 0 67.1 81.2" style="enable-background:new 0 0 67.1 81.2;" xml:space="preserve">
<style type="text/css">
	.st0{fill:#28C870;}
</style>
<path class="st0" d="M27.1,80.1h12.5c1.6,0,2.9-1.3,3.1-2.9c0.1-1.1,0.2-1.3,0.4-2.9H46c2.3,0,4.3-2,4.3-4.4c0-1-0.4-2-0.9-2.7
	c1.6-0.6,2.8-2.2,2.8-4.1c0-1.1-0.4-2.2-1.1-2.9c1.4-0.7,2.3-2.2,2.3-3.9c0-1-0.3-1.9-0.8-2.6c1.8-0.5,3.1-2.2,3.1-4.2
	c0-2.4-1.9-4.4-4.3-4.4h-5.8c0.2-2.3,0.3-2.3,0.3-3.2l9.7-0.1c0.4,0,0.7-0.2,0.9-0.6c0.8-1.9,1.9-4,3-6.2c2.7-5.3,5.7-10.4,6.2-15.5
	c0.8-8.8-5.2-15.2-11.5-17C47.7,0.6,40.5,6.2,38.4,8c-0.2,0.2-0.4,0.3-0.6,0.5c-1.6-1-14.3-8.9-25.7-6.3c-5,1-12.9,4.5-10.6,21.6
	c0.5,4.1,2.8,7.9,4.8,11.3c1.3,2.3,2.6,4.4,3.2,6.3c0.1,0.4,0.5,0.7,0.9,0.7l0,0l10-0.1l0.4,3h-6c-2.3,0-4.3,2-4.3,4.4
	c0,2,1.3,3.7,3.1,4.2c-0.5,0.7-0.8,1.6-0.8,2.6c0,1.7,1,3.2,2.3,3.9C14.4,60.9,14,61.9,14,63c0,1.9,1.2,3.5,2.8,4.1
	c-0.6,0.8-0.9,1.7-0.9,2.7c0,2.4,1.9,4.4,4.3,4.4h3.5l0.4,2.9C24.2,78.9,25.5,80.1,27.1,80.1L27.1,80.1z M11.1,40.1
	c-0.7-1.9-1.9-4-3.2-6.1c-2-3.4-4.1-6.9-4.6-10.5C2.5,16.9,2.5,6.2,12.5,4c9.4-2.1,20.1,3.6,23.4,5.5c0.6,0.6-5.2,4.1-6.6,3.6
	c-0.6-0.1-1.1-0.1-0.9,0.4c0.1,0.5,0.5,0.4,1.3,0.4c0.2-0.1,4.7-1.4,7.9-3.2c0.9-0.5,1.6-0.9,2.1-1.4c1.9-1.6,8.5-6.7,14-5.1
	c5.6,1.6,10.8,7.2,10.1,14.9c-0.4,4.8-3.4,9.7-6,14.8c-1.1,2.1-2.1,4-2.8,5.8L11.1,40.1z M51.3,51.9H14.9c-1.3,0-2.4-1.1-2.4-2.4
	s1.1-2.4,2.4-2.4h36.5c1.3,0,2.4,1.1,2.4,2.4S52.7,51.9,51.3,51.9z M49.4,53.9c1.2,0.2,2.1,1.2,2.1,2.4c0,1.3-1.1,2.4-2.4,2.4h-32
	c-1.3,0-2.4-1.1-2.4-2.4c0-1.2,0.9-2.2,2.1-2.4 M47.9,65.5H18.3c-1.3,0-2.4-1.1-2.4-2.4s1.1-2.4,2.4-2.4h29.6c1.3,0,2.4,1.1,2.4,2.4
	S49.2,65.5,47.9,65.5z M20.2,72.4c-1.3,0-2.4-1.1-2.4-2.4s1.1-2.4,2.4-2.4H46c1.3,0,2.4,1.1,2.4,2.4s-1.1,2.4-2.4,2.4H20.2z"/>
</svg>
