<?xml version="1.0" encoding="utf-8"?>
<!-- Generator: Adobe Illustrator 26.0.1, SVG Export Plug-In . SVG Version: 6.00 Build 0)  -->
<svg version="1.1" id="Layer_1" xmlns="http://www.w3.org/2000/svg" xmlns:xlink="http://www.w3.org/1999/xlink" x="0px" y="0px"
	 viewBox="0 0 92.9 63.3" style="enable-background:new 0 0 92.9 63.3;" xml:space="preserve">
<style type="text/css">
	.st0{fill:#28C870;}
</style>
<path class="st0" d="M79.3,2.2c-4.3-1.1-8.5-0.3-12,2.2l-0.1,0.1C62.4,8,56,8,51.1,4.5L51,4.4c-3.5-2.5-7.7-3.3-11.9-2.2
	c-4.7,1.2-8.6,4.6-10.7,9.2c-0.8,1.7-1.3,3.5-1.5,5.4c-0.9-0.1-1.8-0.2-2.7-0.2c-12.4,0-22.5,10.2-22.5,22.7S11.8,62,24.2,62
	c6.4,0,12.2-2.7,16.3-7.1c0.1,0.4,0.2,0.8,0.4,1.2c0.3,0.9,0.5,1.7,0.7,2.4c0.9,3,3.4,4.9,6.3,4.7c2.4-0.1,5.2-1.9,5.8-5.4
	c0.9-5.2,1.8-11.3,2.7-17.1c0.3-1.8,1.7-2.5,2.9-2.5c1.1,0,2.6,0.6,2.9,2.5c0.9,5.8,1.8,11.8,2.7,17.1c0.6,3.6,3.4,5.3,5.8,5.4H71
	c2.8,0,5.1-1.9,5.9-4.7c0.5-1.7,0.9-3.3,1.2-4.9c0.9-4.1,1.8-8,4.2-11.2c0.3-0.4,0.6-0.9,1-1.3c3.3-4.4,8.4-11.1,8.4-21.8
	c0-2.8-0.6-5.5-1.7-8C87.9,6.8,84,3.4,79.3,2.2L79.3,2.2z M39.7,4.6c3.5-0.9,7-0.3,9.9,1.8l0.1,0.1c4,2.9,9.1,3.7,13.7,2.5
	c-3.7,3.8-9.4,5.3-15.1,3.7c-5.5-1.6-9.4-5.3-11.2-7.1C37.9,5.1,38.8,4.8,39.7,4.6L39.7,4.6z M24.2,59.6c-11.1,0-20-9.1-20-20.2
	c0-11.2,9-20.2,20-20.2c11.1,0,20,9.1,20,20.2S35.2,59.6,24.2,59.6z M81.3,39.7c-0.4,0.5-0.7,0.9-1,1.4c-2.6,3.6-3.6,7.7-4.6,12.1
	c-0.4,1.6-0.7,3.2-1.2,4.8c-0.6,2.3-2.4,3-3.8,2.9s-3.1-1-3.5-3.4c-0.9-5.2-1.8-11.2-2.7-17c-0.4-2.7-2.6-4.6-5.3-4.6
	s-4.9,1.9-5.3,4.6c-0.9,5.8-1.8,11.8-2.7,17c-0.4,2.4-2.2,3.3-3.5,3.4c-1.4,0.1-3.1-0.7-3.8-2.9c-0.2-0.7-0.4-1.5-0.7-2.4
	c-0.2-0.8-0.5-1.7-0.8-2.6c0-0.1-0.1-0.2-0.1-0.2c2.7-3.8,4.3-8.4,4.3-13.4c0-10.7-7.4-19.8-17.4-22.1c0.2-1.7,0.6-3.3,1.3-4.8
	c1-2.2,2.5-4.1,4.4-5.5c0.1,0,0.2,0,0.3,0.1c1.8,1.9,6.1,6.2,12.4,8c1.7,0.5,3.4,0.7,5.1,0.7c2.3,0,4.5-0.4,6.6-1.2
	C63,13.1,66,10.5,67.9,7c0.3-0.2,0.5-0.3,0.8-0.5l0.1-0.1c2.9-2.1,6.4-2.8,9.9-1.8c4,1,7.3,3.9,9.1,7.9c1,2.1,1.5,4.5,1.5,6.9
	C89.2,29.3,84.6,35.3,81.3,39.7L81.3,39.7z M34,34.1h-4.6v-4.6c0-0.7-0.6-1.2-1.2-1.2h-8.1c-0.7,0-1.2,0.6-1.2,1.2v4.6h-4.6
	c-0.7,0-1.2,0.6-1.2,1.2v8c0,0.7,0.6,1.2,1.2,1.2h4.6v4.6c0,0.7,0.6,1.2,1.2,1.2h8.1c0.7,0,1.2-0.6,1.2-1.2v-4.6H34
	c0.7,0,1.2-0.6,1.2-1.2v-8C35.3,34.7,34.7,34.1,34,34.1z M32.8,42.2h-4.6c-0.7,0-1.2,0.6-1.2,1.2V48h-5.6v-4.6
	c0-0.7-0.6-1.2-1.2-1.2h-4.6v-5.6h4.6c0.7,0,1.2-0.6,1.2-1.2v-4.6H27v4.6c0,0.7,0.6,1.2,1.2,1.2h4.6V42.2z"/>
</svg>
