<?xml version="1.0" encoding="utf-8"?>
<!-- Generator: Adobe Illustrator 26.0.1, SVG Export Plug-In . SVG Version: 6.00 Build 0)  -->
<svg version="1.1" id="Layer_1" xmlns="http://www.w3.org/2000/svg" xmlns:xlink="http://www.w3.org/1999/xlink" x="0px" y="0px"
	 viewBox="0 0 97.4 89.2" style="enable-background:new 0 0 97.4 89.2;" xml:space="preserve">
<style type="text/css">
	.st0{fill:#28C870;}
</style>
<path class="st0" d="M50.3,56.3C50.1,55.1,50,54,50,52.9c-1.6-1-5.2-3.6-6.1-7.9c-1.2-6.2,2.8-12.3,9-13.5c2.4-0.5,5-0.2,7.2,0.9
	c0.9,0.4,2,0.2,2.7-0.5c1.7-1.8,3.9-3.1,6.3-3.6c6.2-1.2,12.3,2.8,13.5,9c0.9,4.3-1.4,8.1-2.6,9.7c0.4,1,0.8,2.2,1,3.3
	c1,4.7,0.8,15.7-4,16.6c-4.8,1-9.2-9.1-10.2-13.9c-0.2-0.9-0.2-1.3-0.2-1.5c-0.1-0.6-0.7-1-1.4-0.9c-0.7,0.1-1.1,0.8-0.9,1.5
	c0.1,0.5,0.2,0.9,0.3,1.4c1,4.8,0.7,15.8-4.1,16.8C55.7,71.2,51.3,61.1,50.3,56.3L50.3,56.3z M53.4,34.1c-4.7,0.9-7.8,5.5-6.8,10.2
	c0.8,4.2,5.3,6.4,5.4,6.4c0.5,0.2,0.8,0.8,0.8,1.3c-0.1,1.2,0,2.4,0.3,3.6c1.1,5.4,5.1,12.1,6.9,11.8c2.4-0.5,2.5-10.2,1.9-13.5
	c-0.2-0.8-0.3-1.1-0.4-1.5c-0.7-3.5,3.2-6,6.1-4.1c0.9,0.6,1.5,1.5,1.7,2.5c0.1,0.3,0.1,0.7,0.2,1.5c1.1,5.5,5.2,12.1,6.9,11.8
	c2.4-0.5,2.5-10.2,1.9-13.5c-0.2-1.2-0.6-2.4-1.1-3.5C77,46.6,77,46,77.4,45.6c0,0,3.3-3.8,2.5-8C79,33,74.4,30,69.7,30.9
	c-1.8,0.4-3.6,1.3-4.8,2.7c-1.5,1.7-3.9,2.1-5.9,1.2C57.2,34,55.3,33.8,53.4,34.1L53.4,34.1z"/>
<path class="st0" d="M32.9,69.4c-4.8-1.9-2.6-13.9-0.3-18.6c0.2-0.3,0.2-0.7,0-1c-0.4-0.9-1.8-1-2.2,0c0,0.1-0.2,0.6-0.5,1.4
	C28,55.8,21.8,64.8,17.3,63s-2.7-12.6-0.8-17.3c0.4-1.1,1-2.1,1.6-3.1c-0.8-1.7-2.4-5.9-0.7-10c2.4-5.9,9.1-8.7,15-6.3
	c2.3,0.9,4.3,2.6,5.6,4.7c0.5,0.9,1.6,1.3,2.5,1c3-0.8,6.3-0.3,9.1,1.4c0.6,0.4,0.8,1.3,0.4,1.9c-0.4,0.6-1.3,0.8-1.9,0.4
	c-2.1-1.3-4.6-1.7-6.9-1.1c-2.2,0.6-4.4-0.4-5.6-2.3c-1-1.6-2.5-2.9-4.2-3.6c-4.4-1.8-9.5,0.3-11.3,4.8c-1.6,4,0.9,8.3,1,8.3
	c0.3,0.5,0.3,1.1-0.1,1.5c-0.7,0.9-1.3,2-1.8,3.2c-1,2.4-1.7,5.9-1.8,8.7c-0.1,3.2,0.6,4.7,1.1,4.9c2.3,0.9,7.8-7.1,9-10.3
	c0.3-0.8,0.4-1.1,0.5-1.4c0.8-2,3.1-3,5.2-2.2c2.2,0.9,3.1,3.4,2.1,5.4c-2.6,5.2-3,14-1.2,14.7c2.3,0.9,7.7-7.1,9-10.3
	c0.5-1.2,0.8-2.3,1-3.5c0.1-0.6,0.5-1,1-1.1c0,0,2-0.6,3.9-2c0.6-0.5,1.5-0.4,1.9,0.2c0.5,0.6,0.4,1.5-0.2,1.9
	c-1.5,1.2-3.1,1.9-4,2.2c-0.2,1.1-0.6,2.2-1,3.3C43.7,62.2,37.5,71.3,32.9,69.4L32.9,69.4z"/>
<path class="st0" d="M85.5,88.2H11.9c-5.8,0-10.5-4.7-10.5-10.5V61.2c0-2.7,1.2-5.2,3.3-6.9c3.2-2.5,7.4-3.7,11.6-3.1
	c0.8,0.1,1.3,0.8,1.2,1.6c-0.1,0.8-0.8,1.3-1.6,1.2c-3.2-0.5-6.7,0.3-9.5,2.5c-1.4,1.1-2.3,2.8-2.3,4.7v16.5c0,4.2,3.4,7.7,7.7,7.7
	h73.5c4.2,0,7.7-3.4,7.7-7.7V61.2c0-1.8-0.8-3.5-2.3-4.7c-3-2.4-6.8-3.2-10.5-2.3c-0.7,0.2-1.5-0.3-1.7-1s0.3-1.5,1-1.7
	c4.5-1.1,9.2,0,12.9,2.8c2.1,1.7,3.3,4.2,3.3,6.9v16.5C95.9,83.5,91.2,88.2,85.5,88.2L85.5,88.2z"/>
<path class="st0" d="M48.7,17.3c-0.8,0-1.4-0.6-1.4-1.4V3.4c0-0.8,0.6-1.4,1.4-1.4c0.8,0,1.4,0.6,1.4,1.4v12.5
	C50.1,16.7,49.5,17.3,48.7,17.3z"/>
<path class="st0" d="M42.8,19l-5.9-5.9c-0.5-0.5-0.5-1.4,0-2c0.5-0.5,1.4-0.5,2,0l5.9,5.9c0.5,0.5,0.5,1.4,0,2
	C44.2,19.5,43.3,19.5,42.8,19z"/>
<path class="st0" d="M39,24.3h-5.6c-0.8,0-1.4-0.6-1.4-1.4s0.6-1.4,1.4-1.4H39c0.8,0,1.4,0.6,1.4,1.4C40.4,23.7,39.7,24.3,39,24.3z"
	/>
<path class="st0" d="M64,24.3h-5.6c-0.8,0-1.4-0.6-1.4-1.4s0.6-1.4,1.4-1.4H64c0.8,0,1.4,0.6,1.4,1.4C65.4,23.7,64.7,24.3,64,24.3z"
	/>
<path class="st0" d="M52.6,19c-0.5-0.5-0.5-1.4,0-2l5.9-5.9c0.5-0.5,1.4-0.5,2,0c0.5,0.5,0.5,1.4,0,2L54.6,19
	C54,19.5,53.2,19.5,52.6,19z"/>
</svg>
