<svg xmlns="http://www.w3.org/2000/svg" version="1.1" viewBox="-5.0 -10.0 110.0 135.0">
 <path d="m72.758 5.3164c-7.3047 0-15.543 2.9844-22.758 8.2188-7.2148-5.2344-15.449-8.2188-22.75-8.2188-10.836 0-23.75 6.8008-23.75 39.199 0 14.746 11.801 35.629 18.836 46.766 1.4336 2.2695 3.875 3.543 6.5625 3.3906 2.668-0.14453 4.9609-1.668 6.1367-4.0703 2.4453-5.0039 6.0977-12.312 9.6094-18.73 1.0898-1.9922 3.0898-3.1797 5.3555-3.1797s4.2656 1.1875 5.3555 3.1797c2.7734 5.0703 6.1016 11.547 9.6172 18.734 1.1758 2.4023 3.4688 3.9219 6.1367 4.0703 0.14062 0.007813 0.27734 0.011719 0.41406 0.011719 2.5156 0 4.7891-1.25 6.1484-3.4062 7.0312-11.137 18.828-32.02 18.828-46.766 0-32.395-12.91-39.195-23.742-39.195zm2.3789 84.359c-0.84375 1.3359-2.3125 2.0859-3.8633 2-1.5664-0.085937-2.9141-0.98047-3.6055-2.3906-3.5859-7.3281-6.8438-13.672-9.6797-18.855-1.625-2.9688-4.6094-4.7383-7.9883-4.7383s-6.3633 1.7734-7.9883 4.7383c-3.5391 6.4648-7.2109 13.82-9.6719 18.852-0.69141 1.4141-2.0391 2.3047-3.6055 2.3906-1.5781 0.09375-3.0195-0.66016-3.8633-2-6.8633-10.863-18.375-31.172-18.375-45.164 0-24.02 6.9844-36.195 20.75-36.195 6.9648 0 14.926 3.0195 21.84 8.2812 0.53906 0.40625 1.2812 0.40625 1.8164 0 6.9141-5.2617 14.879-8.2812 21.852-8.2812 13.762 0 20.742 12.18 20.742 36.195 0 13.988-11.508 34.301-18.363 45.164z"/>
 <path d="m60.281 29c-5.668 5.668-14.891 5.668-20.562 0-0.58594-0.58594-1.5352-0.58594-2.1211 0-0.58594 0.58594-0.58594 1.5352 0 2.1211 3.418 3.418 7.9102 5.1289 12.402 5.1289s8.9844-1.7109 12.402-5.1289c0.58594-0.58594 0.58594-1.5352 0-2.1211-0.58594-0.58594-1.5352-0.58594-2.1211 0z"/>
<text x="0.0" y="117.5" font-size="5.0" font-weight="bold" font-family="Arbeit Regular, Helvetica, Arial-Unicode, Arial, Sans-serif" fill="#000000">Created by Naz</text><text x="0.0" y="122.5" font-size="5.0" font-weight="bold" font-family="Arbeit Regular, Helvetica, Arial-Unicode, Arial, Sans-serif" fill="#000000">from Noun Project</text></svg>