<?xml version="1.0" encoding="utf-8"?>
<!-- Generator: Adobe Illustrator 26.0.1, SVG Export Plug-In . SVG Version: 6.00 Build 0)  -->
<svg version="1.1" id="Layer_1" xmlns="http://www.w3.org/2000/svg" xmlns:xlink="http://www.w3.org/1999/xlink" x="0px" y="0px"
	 viewBox="0 0 145 82.6" style="enable-background:new 0 0 145 82.6;" xml:space="preserve">
<style type="text/css">
	.st0{fill:#28C870;}
	.st1{fill:#FFFFFF;}
	.st2{font-family:'Rubik-Bold';}
	.st3{font-size:37.5704px;}
</style>
<g>
	<circle class="st0" cx="155.6" cy="12.4" r="6.7"/>
	<path class="st1" d="M155.6,8.8c0,0-4.8-3.7-4.8,3.1c0,0-0.1,1.6,2,4.8c0,0,0.3,0.6,0.8,0s1-2.8,1.9-2.6s0.6,0.1,2,2.7
		c0,0,0.5,0.5,0.9-0.4c0,0,1.9-2.8,1.8-4.5C160.3,12,160.6,5.4,155.6,8.8z"/>
</g>
<path class="st1" d="M20.8,22C10.1,22,1.5,30.6,1.5,41.3c0,10.7,8.6,19.3,19.3,19.3c10.7,0,19.3-8.6,19.3-19.3
	C40.1,30.6,31.5,22,20.8,22z M29.4,53.1c-1.1,2.5-2.6,1.2-2.6,1.2c-4.2-7.7-3.1-7.3-5.9-7.9c-2.8-0.6-4.2,5.7-5.6,7.4
	c-1.4,1.7-2.4,0.1-2.4,0.1C6.8,44.5,7.1,40,7.1,40C7,20.2,20.8,30.9,20.8,30.9c14.6-10.1,13.8,9,13.8,9.2
	C34.9,44.9,29.4,53.1,29.4,53.1z"/>
<text transform="matrix(1 0 0 1 41.794 52.5476)" class="st1 st2 st3">TARU</text>
</svg>
