<?xml version="1.0" encoding="utf-8"?>
<!-- Generator: Adobe Illustrator 26.0.1, SVG Export Plug-In . SVG Version: 6.00 Build 0)  -->
<svg version="1.1" id="Layer_1" xmlns="http://www.w3.org/2000/svg" xmlns:xlink="http://www.w3.org/1999/xlink" x="0px" y="0px"
	 viewBox="0 0 90.1 90.2" style="enable-background:new 0 0 90.1 90.2;" xml:space="preserve">
<style type="text/css">
	.st0{fill:#28C870;}
</style>
<g>
	<path class="st0" d="M78.9,51.7c-4,0-7.4,2.2-9.2,5.4c-1.8-3.2-5.3-5.4-9.2-5.4c-5.8,0-10.5,4.7-10.5,10.5
		c0,14.2,18.3,25.6,19,26.1c0.2,0.1,0.4,0.2,0.7,0.2s0.5-0.1,0.7-0.2c0.8-0.5,19-11.9,19-26.1C89.4,56.4,84.7,51.7,78.9,51.7
		L78.9,51.7z M69.7,85.6c-3.3-2.2-17.1-12.1-17.1-23.4c0-4.4,3.5-7.9,7.9-7.9s7.9,3.5,7.9,7.9c0,0.7,0.6,1.3,1.3,1.3
		c0.7,0,1.3-0.6,1.3-1.3c0-4.4,3.5-7.9,7.9-7.9s7.9,3.5,7.9,7.9C86.8,73.5,72.9,83.4,69.7,85.6L69.7,85.6z"/>
	<path class="st0" d="M72.3,49.8c-0.2,0.7,0.2,1.4,0.9,1.6c0.7,0.2,1.4-0.2,1.6-0.9c0.9-3,1.4-6.2,1.4-9.4v-5.2
		c0-7.1-3.1-13.8-8.4-18.5c-1.9-1.7-4.4-2.6-6.9-2.6c-3.2,0-6.2,1.4-8.2,4C51.1,20.9,48.6,22,46,22s-5.1-1.2-6.7-3.2
		c-1-1.2-2.2-2.2-3.7-2.9c-3.7-1.8-8.3-1.2-11.5,1.6c-2.6,2.3-4.7,5.1-6.2,8.3c-1.4,3.2-2.2,6.6-2.2,10.1v5.2c0,5.4,1.4,10.8,4,15.5
		l9,16.4c1.2,2.3,3.6,3.7,6.2,3.7c1.9,0,3.7-0.7,5-2.1c1.3-1.3,2.1-3.1,2.1-5V54.3c0-2.2,1.8-3.9,3.9-3.9c1,0,2,0.4,2.8,1.1
		c0.5,0.5,0.9,1.1,1,1.8c0.2,0.7,0.9,1.1,1.6,0.9c0.7-0.2,1.1-0.9,0.9-1.6c-0.3-1.1-0.9-2.2-1.7-3c-1.3-1.2-2.9-1.9-4.6-1.9
		c-3.6,0-6.6,3-6.6,6.6v15.3c0,1.2-0.5,2.3-1.3,3.2c-0.8,0.8-2,1.3-3.2,1.3c-1.6,0-3.1-0.9-3.9-2.3l-9-16.4
		c-2.4-4.4-3.7-9.3-3.7-14.2V36c0-3.1,0.7-6.2,1.9-9c1.3-2.9,3.2-5.4,5.5-7.4c2.4-2.1,5.9-2.5,8.6-1.2c1.1,0.5,2,1.3,2.8,2.2
		c2.2,2.7,5.4,4.2,8.8,4.2s6.6-1.5,8.8-4.2c1.5-1.9,3.8-3,6.2-3c1.9,0,3.8,0.7,5.2,2c4.7,4.2,7.5,10.2,7.5,16.5v5.2
		C73.6,44.1,73.2,47,72.3,49.8L72.3,49.8z"/>
	<path class="st0" d="M7.8,24.1h2.6v2.6c0,1.9,0.8,3.7,2.3,5c0.2,0.2,0.6,0.3,0.9,0.3c0.4,0,0.7-0.2,1-0.5c0.5-0.6,0.4-1.4-0.1-1.9
		c-0.9-0.8-1.4-1.8-1.4-3v-3.9c0-0.7-0.6-1.3-1.3-1.3h-4c-2.2,0-3.9-1.8-3.9-3.9c0-2.2,1.8-3.9,3.9-3.9h3.9c0.7,0,1.3-0.6,1.3-1.3
		v-4c0-2.2,1.8-3.9,3.9-3.9c2.2,0,3.9,1.8,3.9,3.9v3.9c0,0.7,0.6,1.3,1.3,1.3H26c0.5,0,0.9,0.1,1.3,0.2C28,14,28.7,13.6,29,13
		s-0.1-1.4-0.7-1.7c-0.7-0.3-1.5-0.4-2.3-0.4h-2.6V8.3c0-3.6-3-6.6-6.6-6.6s-6.6,3-6.6,6.6v2.6H7.8c-3.6,0-6.6,3-6.6,6.6
		C1.3,21.1,4.2,24,7.8,24.1L7.8,24.1z"/>
	<path class="st0" d="M88.1,18.8c-1.9,0-3.9-3.2-3.9-7.9c0-0.7-0.6-1.3-1.3-1.3c-0.7,0-1.3,0.6-1.3,1.3c0,4.7-2.1,7.9-3.9,7.9
		c-0.7,0-1.3,0.6-1.3,1.3s0.6,1.3,1.3,1.3c1.9,0,3.9,3.2,3.9,7.9c0,0.7,0.6,1.3,1.3,1.3c0.7,0,1.3-0.6,1.3-1.3
		c0-4.7,2.1-7.9,3.9-7.9c0.7,0,1.3-0.6,1.3-1.3S88.8,18.8,88.1,18.8z M82.8,22.9c-0.5-1.2-1.2-2.1-2-2.8c0.8-0.7,1.5-1.7,2-2.8
		c0.5,1.2,1.2,2.1,2,2.8C84.1,20.8,83.4,21.8,82.8,22.9z"/>
	<path class="st0" d="M11.8,79.3c0,0.7,0.6,1.3,1.3,1.3s1.3-0.6,1.3-1.3c0-4.7,2.1-7.9,3.9-7.9c0.7,0,1.3-0.6,1.3-1.3
		s-0.6-1.3-1.3-1.3c-1.9,0-3.9-3.2-3.9-7.9c0-0.7-0.6-1.3-1.3-1.3s-1.3,0.6-1.3,1.3c0,4.7-2.1,7.9-3.9,7.9c-0.7,0-1.3,0.6-1.3,1.3
		s0.6,1.3,1.3,1.3C9.7,71.4,11.8,74.7,11.8,79.3z M13.1,67.3c0.5,1.2,1.2,2.1,2,2.8c-0.8,0.7-1.5,1.7-2,2.8c-0.5-1.2-1.2-2.1-2-2.8
		C11.8,69.4,12.5,68.4,13.1,67.3z"/>
</g>
</svg>
