<?xml version="1.0" encoding="utf-8"?>
<!-- Generator: Adobe Illustrator 26.0.1, SVG Export Plug-In . SVG Version: 6.00 Build 0)  -->
<svg version="1.1" id="Layer_1" xmlns="http://www.w3.org/2000/svg" xmlns:xlink="http://www.w3.org/1999/xlink" x="0px" y="0px"
	 viewBox="0 0 97.5 87.7" style="enable-background:new 0 0 97.5 87.7;" xml:space="preserve">
<style type="text/css">
	.st0{fill:#28C870;}
</style>
<g>
	<path class="st0" d="M49.6,70.6c-0.3,0-0.5,0-0.8,0c-2.9-0.3-5.2-2.4-5.8-5.3l-4.2-19.6c0-0.1-0.2-0.2-0.3-0.2
		c-0.2,0-0.3,0.1-0.3,0.2L34,65.3c-0.6,2.8-2.9,4.9-5.8,5.3c-2.9,0.3-5.6-1.2-6.8-3.8C15.1,53.3,10.8,44.7,9.3,42.6
		C5.7,37.1,0,26.5,3.5,16.3C5.7,9.7,10.4,4.9,16.3,3C24.4,0.4,31.4,4.4,36,7.6c1.5,1.1,3.6,1.1,5.1,0C45.6,4.4,52.6,0.4,60.8,3
		c5.9,1.9,10.5,6.7,12.8,13.3c0.2,0.6,0.4,1.2,0.5,1.7l0,0c0.1,0.4,0,0.8-0.2,1.2c-0.2,0.4-0.6,0.6-1,0.7s-0.8,0-1.2-0.2
		c-0.4-0.2-0.6-0.6-0.7-1c-0.1-0.5-0.3-1-0.4-1.4c-2-5.7-5.9-9.8-10.8-11.4C53,3.8,46.9,7.3,42.9,10.1c-2.6,1.8-6.1,1.8-8.7,0
		c-4-2.8-10.1-6.3-16.9-4.1c-4.9,1.6-8.9,5.7-10.8,11.4C3.4,26.3,8.6,35.9,12,40.8c1.6,2.3,5.8,10.6,12.3,24.7
		c0.6,1.4,2.1,2.2,3.6,2s2.8-1.3,3.1-2.8l4.2-19.6V45c0.4-1.5,1.8-2.6,3.4-2.6c1.6,0,3,1.1,3.4,2.6v0.1l4.2,19.6
		c0.3,1.5,1.6,2.6,3.1,2.8c1.5,0.2,3-0.6,3.6-2c1.3-2.7,2.6-5.4,3.8-8l0,0c0.2-0.4,0.5-0.7,0.9-0.8s0.8-0.1,1.2,0.1
		c0.4,0.2,0.7,0.5,0.8,0.9s0.1,0.8-0.1,1.2c-1.2,2.6-2.5,5.3-3.8,8C54.5,69.1,52.2,70.6,49.6,70.6L49.6,70.6z"/>
	<path class="st0" d="M70.3,57.2c-5.6,0-10.9-2.8-14-7.5s-3.7-10.6-1.6-15.8c2.2-5.2,6.8-9,12.3-10.1s11.2,0.7,15.2,4.7
		s5.7,9.7,4.5,15.2c-1.1,5.5-5,10.1-10.2,12.2C74.6,56.7,72.5,57.2,70.3,57.2L70.3,57.2z M70.1,26.3L70.1,26.3
		c-5.5,0-10.5,3.3-12.6,8.4c-3,7.1,0.3,15.2,7.4,18.2l0,0c3.4,1.4,7.2,1.5,10.5,0.1c3.4-1.4,6.1-4,7.5-7.4S84.4,38.4,83,35
		s-4-6.2-7.4-7.6C73.9,26.7,72,26.3,70.1,26.3L70.1,26.3z"/>
	<path class="st0" d="M71.7,49.5L71.7,49.5h-3.1c-0.8,0-1.6-0.3-2.2-0.9s-0.9-1.4-0.9-2.2v-1.5H64l0,0c-0.8,0-1.6-0.3-2.2-0.9
		c-0.6-0.6-0.9-1.4-0.9-2.2v-3.1c0-1.7,1.4-3.1,3.1-3.1l0,0h1.5v-1.5l0,0c0-0.8,0.3-1.6,0.9-2.2c0.6-0.6,1.4-0.9,2.2-0.9h3.1l0,0
		c0.8,0,1.6,0.3,2.2,0.9c0.6,0.6,0.9,1.4,0.9,2.2v1.5h1.5l0,0c1.7,0,3.1,1.4,3.1,3.2v3.1l0,0c0,1.7-1.4,3.1-3.1,3.1l0,0h-1.5v1.5
		c0,0.8-0.3,1.6-0.9,2.2C73.3,49.2,72.5,49.5,71.7,49.5L71.7,49.5z M64.1,38.5v3.1h3.1c0.9,0,1.6,0.7,1.6,1.6v3.1h3.1v-3.1l0,0
		c0-0.9,0.7-1.5,1.6-1.5l0,0h3.1v-3.1l0,0h-3.1l0,0c-0.4,0-0.8-0.2-1.1-0.5c-0.3-0.3-0.5-0.7-0.5-1.1v-3.1h-3.1V37
		c0,0.9-0.7,1.6-1.6,1.5l0,0H64.1z"/>
	<path class="st0" d="M70.4,63.6c-4.7,0-9.2-1.4-13.1-4s-6.9-6.3-8.6-10.7c-4.8-12,0.9-25.6,12.8-30.4s25.5,1,30.3,13
		S90.9,57.1,79,61.9l0,0C76.3,63,73.3,63.6,70.4,63.6L70.4,63.6z M70.1,19.9c-2.6,0-5.1,0.5-7.5,1.5c-10.3,4.2-15.3,16-11.1,26.4
		s16,15.5,26.3,11.3s15.3-16,11.1-26.4c-1.5-3.8-4.1-7-7.5-9.3C78.1,21.1,74.1,19.9,70.1,19.9L70.1,19.9z"/>
	<path class="st0" d="M77.5,69.5c-0.6,0-1.2-0.4-1.5-1l-2.6-6.4c-0.2-0.4-0.2-0.8,0-1.2s0.5-0.7,0.9-0.8c0.8-0.3,1.7,0.1,2,0.9l2,5
		l3.8-1.6l-2-5c-0.2-0.4-0.2-0.8,0-1.2s0.5-0.7,0.9-0.8c0.8-0.3,1.7,0.1,2,0.9l2.6,6.4c0.3,0.8-0.1,1.7-0.9,2L78,69.4l0,0
		C77.9,69.5,77.7,69.5,77.5,69.5L77.5,69.5z"/>
	<path class="st0" d="M85.4,87.7c-4.1,0-7.7-2.5-9.2-6.2l-4.5-11.2c-0.3-0.8,0.1-1.7,0.9-2L88.1,62l0,0c0.4-0.2,0.8-0.2,1.2,0
		c0.4,0.2,0.7,0.5,0.8,0.9L94.6,74c2.1,5.1-0.4,10.9-5.5,13C87.9,87.5,86.7,87.7,85.4,87.7L85.4,87.7z M75.1,70.6l3.9,9.7
		c1.4,3.5,5.4,5.2,8.9,3.8c3.5-1.4,5.2-5.4,3.8-8.9l-3.9-9.7L75.1,70.6z"/>
</g>
</svg>
