<?xml version="1.0" encoding="utf-8"?>
<!-- Generator: Adobe Illustrator 26.0.1, SVG Export Plug-In . SVG Version: 6.00 Build 0)  -->
<svg version="1.1" id="Layer_1" xmlns="http://www.w3.org/2000/svg" xmlns:xlink="http://www.w3.org/1999/xlink" x="0px" y="0px"
	 viewBox="0 0 85.1 91.6" style="enable-background:new 0 0 85.1 91.6;" xml:space="preserve">
<style type="text/css">
	.st0{fill-rule:evenodd;clip-rule:evenodd;fill:#28C870;}
</style>
<path class="st0" d="M43.6,9.1c1.3,2.6,3.4,4.7,5.9,6.1c-2.5,1.4-4.6,3.5-5.9,6.1c-1.3-2.6-3.4-4.7-5.9-6.1
	C40.3,13.8,42.3,11.7,43.6,9.1z M33.7,16.4c4.5,1,7.9,4.7,8.6,9.2c0.2,1.5,2.4,1.5,2.6,0c0.7-4.5,4.2-8.2,8.6-9.2
	c1.4-0.3,1.4-2.3,0-2.6c-4.5-1-7.9-4.7-8.6-9.2c-0.2-1.5-2.4-1.5-2.6,0c-0.7,4.5-4.2,8.2-8.6,9.2C32.3,14.2,32.3,16.1,33.7,16.4z
	 M74.1,39.2c-0.7-4.5-2.4-7.8-5.1-9.8c8-2.3,11.2-1.4,11.7-0.4C81.3,30.1,80,33.5,74.1,39.2L74.1,39.2z M68.6,63.5
	c-1.1,3.8-2.9,10-5.5,15.5c-2.6,5.7-5.3,8.7-7.5,8.5c-3.8-0.5-4-6.1-4.6-10.3c-1.1-7-4.6-9.5-7.6-9.5c-1.8,0-3.6,0.9-5,2.6
	s-2.3,4.1-2.8,6.9C35,81.4,34.9,87,31,87.4c-2.2,0.3-4.8-2.7-7.5-8.5c-0.8-1.7-1.5-3.6-2.2-5.4C37.4,68,58.6,55.8,71.8,44.7
	C71.7,52.5,69.4,60.9,68.6,63.5L68.6,63.5z M4.5,72.9c-0.9-1.6,1.8-6.3,9.8-13.2c0.9,3.7,2.5,8.8,3.6,12.2
	C9.2,74.6,5.2,74.1,4.5,72.9L4.5,72.9z M17.4,33.5c-5.4,7.8-0.8,24.9,0.7,30c0.7,2.3,1.3,4.4,2.4,7.6c16.3-5.6,38.4-18.4,51.2-29.7
	c-0.4-4.8-2-8.9-5.7-10.7c-5.3-2.6-10.9-0.8-17.3,1.2c-2.2,0.7-4.5,1.4-6.8,2c3.5,0.7,7.2,0.5,11-0.5c0.7-0.2,1.4,0.2,1.6,0.9
	s-0.2,1.4-0.9,1.6c-7.7,2.1-15,1-21.7-3.4c0,0-0.1,0-0.1-0.1c-2.4-1.9-4.8-2.8-7.3-2.7C21.3,29.9,19,31.2,17.4,33.5L17.4,33.5z
	 M82.9,27.6c1.7,3-1,7.9-8.1,14.5c-0.1,0.1-0.3,0.2-0.4,0.4c0.4,8-1.8,16.9-3.3,21.8C67.7,75.8,62.6,90.9,55.3,90
	c-5.4-0.6-6.2-6.9-6.7-11c-0.1-0.6-0.1-1.1-0.2-1.6c-0.7-4.4-2.6-7.3-5-7.3c-2,0-4.4,2.3-5.2,7.3c-0.1,0.5-0.1,1-0.2,1.6
	c-0.5,4.1-1.3,10.3-6.7,11c-5.2,0.6-9.4-7.1-12.5-15.6l0,0c-4.5,1.4-8.2,2.1-10.9,2.1c-2.9,0-4.8-0.8-5.7-2.3
	c-2.5-4.3,4.7-11.7,11.5-17.4C12,48.5,11.1,38.1,15.3,32c2.1-3,5.1-4.7,9.1-4.9c3.1-0.2,6.1,0.8,9.1,3.2c1,0.7,2.1,1.3,3.2,1.8
	c3.9-0.4,7.7-1.6,11.4-2.7c6.1-1.9,11.9-3.8,17.7-1.7C75.3,24.5,81.1,24.5,82.9,27.6L82.9,27.6z"/>
</svg>
