<?xml version="1.0" encoding="utf-8"?>
<!-- Generator: Adobe Illustrator 26.0.1, SVG Export Plug-In . SVG Version: 6.00 Build 0)  -->
<svg version="1.1" id="Layer_1" xmlns="http://www.w3.org/2000/svg" xmlns:xlink="http://www.w3.org/1999/xlink" x="0px" y="0px"
	 viewBox="0 0 96.6 75.9" style="enable-background:new 0 0 96.6 75.9;" xml:space="preserve">
<style type="text/css">
	.st0{fill:#28C870;}
</style>
<path class="st0" d="M74.3,12l1.5,0.8c0.3,0.2,0.3,0.3,1.1,1.8c1.3,2.4,4.7,2.4,6,0c0.8-1.5,0.8-1.6,1.1-1.8l1.5-0.8
	c2.4-1.3,2.4-4.7,0-6c-1.5-0.8-1.6-0.8-1.8-1.1L83,3.3c-1.3-2.4-4.7-2.4-6,0l-0.8,1.5C76,5.1,75.8,5.1,74.3,6
	c-1.1,0.6-1.8,1.8-1.8,3S73.2,11.4,74.3,12L74.3,12z M75.6,8.4l1.5-0.8c0.6-0.3,1-0.8,1.4-1.4l0.8-1.5c0.2-0.5,0.9-0.5,1.1,0
	l0.8,1.5c0.3,0.6,0.8,1,1.4,1.4l1.5,0.8c0.5,0.2,0.5,0.9,0,1.1l-1.5,0.8c-0.6,0.3-1.1,0.8-1.4,1.4l-0.8,1.5c-0.2,0.5-0.9,0.5-1.1,0
	l-0.8-1.5c-0.3-0.6-0.8-1.1-1.4-1.4l-1.5-0.8c-0.3-0.2-0.3-0.5-0.3-0.6C75.3,8.9,75.3,8.6,75.6,8.4L75.6,8.4z"/>
<path class="st0" d="M92.6,40.5c-6-4.7-14.6-4.2-20,1.1l-2.2,2.2c-0.1-1.2-0.2-2.4-0.5-3.6c1.8-1.6,6.4-6.2,6.4-12.6
	c0-0.4,0-0.8,0-1.2l1-0.6c2.4-1.3,2.4-4.7,0-6L75.8,19c-0.3-0.2-0.3-0.3-1.1-1.8c-0.8-1.4-2.4-2.1-4-1.6C64.9,10.8,56.8,10.7,51,15
	c-1.4,1-3.2,1-4.6,0c-3.9-2.9-9.1-3.9-13.8-2.5c-0.7,0.2-1.2,1-1,1.7s1,1.2,1.7,1c3.9-1.1,8.2-0.3,11.4,2.1c2.4,1.7,5.5,1.7,7.9,0
	c4.6-3.4,11.1-3.5,15.9,0.2c-0.7,1.2-0.7,1.4-1,1.6L66,19.8c-2.4,1.3-2.4,4.7,0,6c1.5,0.8,1.6,0.8,1.8,1.1l0.8,1.5
	c0.9,1.7,3,2.3,4.7,1.4c-1.1,5.2-5.7,8.7-5.7,8.7c-0.4,0.3-0.6,0.9-0.5,1.4c0.4,1.7,0.6,3.5,0.6,5.3c0,8-3.8,19-7,19
	c-4.3,0-7-14.6-7-19c0-1.2,0.1-1.7,0.1-2.2c0-2.8-2.3-5-5.1-5c-3,0-5.3,2.5-5.1,5.4c0,0.6,0.1,1.2,0.1,1.8c0,4.3-2.7,19-7,19
	c-3.1,0-7-10.8-7-19c0-1.8,0.2-3.6,0.6-5.3c0.1-0.5-0.1-1.1-0.5-1.4c-0.1,0-6-4.6-6-10.9c0-2.2,0.6-4.5,1.7-6.4
	c0.4-0.7,0.1-1.5-0.5-1.9c-0.7-0.4-1.5-0.1-1.9,0.5c-1.3,2.4-2.1,5-2.1,7.8c0,6.4,4.6,11,6.4,12.6c-0.2,1.1-0.4,2.3-0.5,3.5
	l-2.2-2.1c-5.5-5.5-14.1-5.7-20-1.1c-2.1,1.7-3.3,4.2-3.3,6.9v16.5c0,5.8,4.7,10.5,10.5,10.5h57.4c0.8,0,1.4-0.6,1.4-1.4
	s-0.6-1.4-1.4-1.4H11.9c-4.2,0-7.7-3.4-7.7-7.7V47.4c0-1.8,0.8-3.5,2.3-4.7c4.8-3.8,11.8-3.5,16.3,0.9l4.2,4.1
	c0.6,7.1,3.8,19.4,9.7,19.4c6.5,0,9.8-15.1,9.8-21.8c0-1.3-0.1-1.9-0.1-2.2c0-1.3,1-2.3,2.3-2.3s2.4,1.1,2.3,2.4
	c-0.1,0.7-0.1,1.3-0.1,2c0,6.9,3.4,21.8,9.8,21.8c5.8,0,9.1-12.3,9.7-19.4l4.2-4.1c4.4-4.4,11.4-4.8,16.3-0.9
	c1.5,1.1,2.3,2.9,2.3,4.7v16.5c0,4.2-3.4,7.7-7.7,7.7h-5c-0.8,0-1.4,0.6-1.4,1.4s0.6,1.4,1.4,1.4h5c5.8,0,10.5-4.7,10.5-10.5V47.4
	C95.9,44.8,94.7,42.2,92.6,40.5L92.6,40.5z M72.2,27.2c-0.2,0.3-0.5,0.3-0.6,0.3s-0.4,0-0.6-0.3l-0.8-1.5c-0.3-0.6-0.8-1.1-1.4-1.4
	l-1.5-0.8c-0.5-0.2-0.5-0.9,0-1.1l1.5-0.8c0.6-0.3,1-0.8,1.4-1.4l0.8-1.5c0.2-0.5,0.9-0.5,1.1,0l0.8,1.5c0.3,0.6,0.8,1,1.4,1.4
	l1.5,0.8c0.5,0.2,0.5,0.9,0,1.1l-1.5,0.8c-0.6,0.3-1.1,0.8-1.4,1.4L72.2,27.2z"/>
<path class="st0" d="M29.4,16.4c0,1.9-2.8,1.9-2.8,0S29.4,14.6,29.4,16.4"/>
<path class="st0" d="M76.3,73c0,1.9-2.8,1.9-2.8,0S76.3,71.1,76.3,73"/>
</svg>
